<?xml version="1.0" encoding="utf-8"?>
<!-- Generator: Adobe Illustrator 25.0.1, SVG Export Plug-In . SVG Version: 6.00 Build 0)  -->
<svg version="1.1" id="Content" xmlns="http://www.w3.org/2000/svg" xmlns:xlink="http://www.w3.org/1999/xlink" x="0px" y="0px"
	 viewBox="0 0 108 108" style="enable-background:new 0 0 108 108;" xml:space="preserve">
<style type="text/css">
	.st0{fill:#FFFFFF;}
</style>
<path class="st0" d="M37.7,89.7C70.9,89.7,89,62.2,89,38.4c0-0.8,0-1.6-0.1-2.3c3.5-2.5,6.6-5.7,9-9.3c-3.3,1.5-6.8,2.4-10.3,2.8
	c3.8-2.3,6.6-5.8,7.9-10c-3.5,2.1-7.4,3.6-11.5,4.4c-6.8-7.3-18.3-7.6-25.5-0.8c-4.7,4.4-6.7,11-5.2,17.2
	c-14.5-0.7-28-7.6-37.2-18.8c-4.8,8.2-2.4,18.8,5.6,24.1c-2.9-0.1-5.7-0.9-8.2-2.3v0.2c0,8.6,6,16,14.4,17.7
	c-1.6,0.4-3.2,0.6-4.8,0.6c-1.1,0-2.3-0.1-3.4-0.3C22.2,69,29,74,36.8,74.2c-6.4,5-14.3,7.7-22.4,7.7c-1.4,0-2.9-0.1-4.3-0.2
	C18.3,86.9,27.9,89.7,37.7,89.7"/>
</svg>
